<svg width="496" height="298" viewBox="0 0 496 298" fill="none" xmlns="http://www.w3.org/2000/svg">
<path d="M496 280.8C496 290.4 488.8 297.6 479.2 297.6H16.8C7.2 297.6 0 290.4 0 280.8V16.8C0 7.2 7.2 0 16.8 0H479.2C488.8 0 496 7.2 496 16.8V280.8Z" fill="#12DB55"/>
<path d="M496 280.8C496 290.4 488.8 297.6 479.2 297.6H16.8C7.2 297.6 0 290.4 0 280.8V16.8C0 7.2 7.2 0 16.8 0H479.2C488.8 0 496 7.2 496 16.8V280.8Z" fill="#C1FD35"/>
<path d="M0 16.7212C0 7.16621 7.2 0 16.8 0H479.2C488.8 0 496 7.16621 496 16.7212V280.279C496 289.834 488.8 297 479.2 297" fill="#ADE32D"/>
<path d="M496 20H0V116.8H496V20Z" fill="#333333"/>
<path d="M170.4 116.8H496V20H5.59961L170.4 116.8Z" fill="#201F22"/>
<path d="M496 280.8C496 290.4 488.8 297.6 479.2 297.6H16.8C7.2 297.6 0 290.4 0 280.8" fill="#333333"/>
<path d="M479.2 297.6C488.8 297.6 496 290.4 496 280.8H451.2L479.2 297.6Z" fill="#201F22"/>
<path d="M177.6 165.6C177.6 168.8 175.2 171.2 172 171.2H52.8002C49.6002 171.2 47.2002 168.8 47.2002 165.6C47.2002 162.4 49.6002 160 52.8002 160H172C175.2 160 177.6 162.4 177.6 165.6Z" fill="#333333"/>
<path d="M177.6 194.4C177.6 197.6 175.2 200 172 200H52.8002C49.6002 200 47.2002 197.6 47.2002 194.4C48.0002 191.2 50.4002 188.8 52.8002 188.8H172C175.2 188.8 177.6 191.2 177.6 194.4Z" fill="#333333"/>
<path d="M154.4 223.2C154.4 226.4 152 228.8 148.8 228.8H52.8C50.4 228.8 48 226.4 48 223.2C48 220 50.4 217.6 53.6 217.6H149.6C152 218.4 154.4 220.8 154.4 223.2Z" fill="#333333"/>
</svg>
