<svg width="713" height="441" viewBox="0 0 713 441" fill="none" xmlns="http://www.w3.org/2000/svg">
<path d="M250.236 47.0776H462.166V393.222H250.236V47.0776Z" fill="#FF5F00"/>
<path d="M272.065 220.181C272.038 186.85 279.594 153.95 294.16 123.971C308.726 93.9911 329.921 67.7178 356.14 47.1388C323.666 21.618 284.668 5.74812 243.601 1.34293C202.535 -3.06227 161.058 4.17496 123.91 22.2275C86.7626 40.28 55.4431 68.4194 33.5315 103.43C11.6198 138.44 0 178.909 0 220.211C0 261.512 11.6198 301.981 33.5315 336.991C55.4431 372.002 86.7626 400.141 123.91 418.194C161.058 436.246 202.535 443.483 243.601 439.078C284.668 434.673 323.666 418.803 356.14 393.282C329.912 372.697 308.713 346.414 294.147 316.423C279.58 286.432 272.029 253.52 272.065 220.179V220.181Z" fill="#EB001B"/>
<path d="M712.311 220.181C712.31 261.486 700.688 301.957 678.772 336.968C656.856 371.98 625.532 400.119 588.38 418.169C551.227 436.219 509.746 443.451 468.677 439.04C427.608 434.628 388.61 418.75 356.138 393.221C382.347 372.624 403.536 346.343 418.105 316.362C432.675 286.382 440.245 253.483 440.245 220.149C440.245 186.816 432.675 153.917 418.105 123.936C403.536 93.9554 382.347 67.6749 356.138 47.0776C388.61 21.5486 427.609 5.67085 468.677 1.25924C509.746 -3.15237 551.228 4.08021 588.38 22.1302C625.533 40.1803 656.857 68.3194 678.772 103.331C700.688 138.343 712.31 178.814 712.311 220.119V220.181Z" fill="#F79E1B"/>
</svg>
