<svg width="923" height="334" viewBox="0 0 923 334" fill="none" xmlns="http://www.w3.org/2000/svg">
<path d="M178.73 333.961V189.411H331.781L348.202 210.818L365.167 189.411H920.708V323.994C920.708 323.994 906.18 333.817 889.376 333.962H581.762L563.248 311.175V333.962H502.58V295.065C502.58 295.065 494.292 300.494 476.376 300.494H455.725V333.962H363.869L347.471 312.097L330.821 333.962L178.73 333.961ZM0 80.4643L34.5137 0H94.2022L113.788 45.0728V0H187.986L199.647 32.5772L210.951 0H544.022V16.3777C544.022 16.3777 561.532 0 590.307 0L698.376 0.378433L717.625 44.8605V0H779.718L796.807 25.5514V0H859.469V144.551H796.807L780.429 118.916V144.55H689.202L680.027 121.764H655.503L646.477 144.55H584.61C559.85 144.55 544.022 128.507 544.022 128.507V144.55H450.74L432.227 121.765V144.551H85.3599L76.1918 121.765H51.7433L42.6426 144.55H0V80.4643Z" fill="white"/>
<path d="M46.7302 17.8204L0.178711 126.055H30.4863L39.0758 104.381H89.01L97.5542 126.055H128.53L82.0211 17.8204H46.7302ZM63.9534 43.009L79.1736 80.8833H48.6888L63.9534 43.009ZM131.734 126.036V17.8019L174.802 17.9616L199.852 87.7449L224.302 17.8019H267.027V126.036H239.968V46.2847L211.285 126.036H187.555L158.792 46.2847V126.036H131.734ZM285.541 126.036V17.8019H373.837V42.0122H312.884V60.5257H372.413V83.3127H312.884V102.539H373.837V126.036H285.541ZM389.504 17.8204V126.055H416.562V87.6028H427.955L460.398 126.055H493.466L457.862 86.1786C472.474 84.9455 487.546 72.4047 487.546 52.934C487.546 30.1581 469.67 17.8204 449.718 17.8204H389.504ZM416.562 42.0306H447.492C454.913 42.0306 460.31 47.8345 460.31 53.4232C460.31 60.6134 453.316 64.8167 447.893 64.8167H416.562V42.0306ZM526.221 126.036H498.593V17.8019H526.221V126.036ZM591.731 126.036H585.768C556.914 126.036 539.394 103.303 539.394 72.3641C539.394 40.66 556.717 17.8019 593.155 17.8019H623.062V43.4364H592.062C577.27 43.4364 566.809 54.9803 566.809 72.6308C566.809 93.5921 578.771 102.396 596.003 102.396H603.124L591.731 126.036ZM650.611 17.8204L604.059 126.055H634.367L642.956 104.381H692.89L701.435 126.055H732.41L685.903 17.8204H650.611ZM667.834 43.009L683.054 80.8833H652.569L667.834 43.009ZM735.569 126.036V17.8019H769.971L813.897 85.8048V17.8019H840.956V126.036H807.667L762.628 56.254V126.036H735.569ZM197.245 315.447V207.212H285.541V231.423H224.588V249.937H284.116V272.723H224.588V291.949H285.541V315.447H197.245ZM629.899 315.447V207.212H718.195V231.423H657.242V249.937H716.486V272.723H657.241V291.949H718.194V315.447H629.899ZM288.968 315.447L331.959 261.998L287.944 207.212H322.035L348.248 241.08L374.551 207.212H407.306L363.87 261.33L406.94 315.447H372.855L347.403 282.114L322.57 315.447H288.968ZM410.154 207.231V315.466H437.924V281.287H466.407C490.507 281.287 508.775 268.501 508.775 243.636C508.775 223.037 494.448 207.231 469.923 207.231H410.154ZM437.924 231.709H467.92C475.706 231.709 481.271 236.481 481.271 244.169C481.271 251.393 475.734 256.631 467.831 256.631H437.924V231.709ZM520.524 207.212V315.447H547.583V276.995H558.976L591.42 315.447H624.486L588.883 275.572C603.495 274.339 618.567 261.797 618.567 242.326C618.567 219.55 600.69 207.212 580.739 207.212H520.524ZM547.583 231.423H578.514C585.934 231.423 591.331 237.227 591.331 242.816C591.331 250.006 584.338 254.209 578.914 254.209H547.583V231.423ZM730.727 315.447V291.949H784.881C792.893 291.949 796.363 287.619 796.363 282.87C796.363 278.319 792.904 273.72 784.881 273.72H760.409C739.139 273.72 727.292 260.761 727.292 241.303C727.292 223.948 738.14 207.212 769.75 207.212H822.442L811.049 231.566H765.476C756.765 231.566 754.084 236.136 754.084 240.502C754.084 244.988 757.397 249.937 764.052 249.937H789.687C813.398 249.937 823.688 263.387 823.688 281.001C823.688 299.938 812.223 315.447 788.396 315.447H730.727ZM830.039 315.447V291.949H884.192C892.205 291.949 895.674 287.619 895.674 282.87C895.674 278.319 892.216 273.72 884.192 273.72H859.721C838.45 273.72 826.604 260.761 826.604 241.303C826.604 223.948 837.452 207.212 869.061 207.212H921.754L910.36 231.566H864.788C856.077 231.566 853.395 236.136 853.395 240.502C853.395 244.988 856.708 249.937 863.364 249.937H888.999C912.71 249.937 923 263.387 923 281.001C923 299.938 911.534 315.447 887.708 315.447H830.039Z" fill="#016FD0"/>
</svg>
