<svg width="924" height="299" viewBox="0 0 924 299" fill="none" xmlns="http://www.w3.org/2000/svg">
<mask id="mask0_2891_2135" style="mask-type:luminance" maskUnits="userSpaceOnUse" x="0" y="0" width="924" height="299">
<path d="M477.394 95.2958C476.867 136.818 514.398 159.99 542.671 173.767C571.72 187.903 581.476 196.967 581.365 209.606C581.144 228.954 558.193 237.491 536.711 237.824C499.236 238.406 477.449 227.706 460.125 219.613L446.626 282.783C464.006 290.794 496.187 297.779 529.56 298.083C607.892 298.083 659.143 259.416 659.42 199.461C659.725 123.374 554.174 119.161 554.894 85.1509C555.144 74.8396 564.984 63.8354 586.549 61.0359C597.22 59.6222 626.685 58.5412 660.086 73.9249L673.196 12.8059C655.235 6.26434 632.146 -3.32723e-05 603.402 -3.32723e-05C529.671 -3.32723e-05 477.81 39.1938 477.394 95.2958ZM799.177 5.26646C784.874 5.26646 772.816 13.6097 767.439 26.4156L655.54 293.593H733.817L749.394 250.546H845.05L854.087 293.593H923.078L862.873 5.26646H799.177ZM810.125 83.1551L832.716 191.423H770.848L810.125 83.1551ZM382.486 5.26646L320.785 293.593H395.375L457.049 5.26646H382.486ZM272.139 5.26646L194.5 201.513L163.095 34.6479C159.409 16.0212 144.856 5.26646 128.697 5.26646H1.77413L0 13.6374C26.0553 19.2919 55.6585 28.4114 73.5923 38.1682C84.5688 44.1277 87.7009 49.3387 91.3043 63.5028L150.788 293.593H229.619L350.471 5.26646H272.139Z" fill="white"/>
</mask>
<g mask="url(#mask0_2891_2135)">
<path d="M-96.6633 35.5996L812.842 -299.349L1019.75 262.493L110.254 597.442" fill="url(#paint0_linear_2891_2135)"/>
</g>
<defs>
<linearGradient id="paint0_linear_2891_2135" x1="83.6164" y1="289.024" x2="861.573" y2="2.51391" gradientUnits="userSpaceOnUse">
<stop stop-color="#222357"/>
<stop offset="1" stop-color="#254AA5"/>
</linearGradient>
</defs>
</svg>
