<svg width="92" height="95" viewBox="0 0 92 95" fill="none" xmlns="http://www.w3.org/2000/svg">
<g clip-path="url(#clip0_1623_2865)">
<path d="M48.8983 5.97322C43.234 5.96253 37.6234 7.1073 32.3887 9.34181C27.154 11.5763 22.3983 14.8566 18.3946 18.9942C1.57584 36.3613 1.57584 64.612 18.4003 81.9792C35.2191 99.3404 62.5776 99.3404 79.3963 81.9792C96.2094 64.612 96.2094 36.3613 79.3963 18.9942C75.395 14.8566 70.6413 11.5764 65.4085 9.34182C60.1756 7.10726 54.5667 5.96247 48.9041 5.97322H48.8983ZM48.8983 11.8751C58.4548 11.8751 68.0114 15.6454 75.3254 23.192C78.8014 26.7735 81.5593 31.0279 83.4409 35.7115C85.3226 40.3951 86.2912 45.416 86.2912 50.4867C86.2912 55.5573 85.3226 60.5782 83.4409 65.2618C81.5593 69.9454 78.8014 74.1998 75.3254 77.7814C71.8569 81.3708 67.7369 84.2186 63.2012 86.1616C58.6655 88.1046 53.8031 89.1048 48.8926 89.1048C43.9821 89.1048 39.1197 88.1046 34.584 86.1616C30.0483 84.2186 25.9283 81.3708 22.4598 77.7814C18.9838 74.1998 16.2259 69.9454 14.3442 65.2618C12.4626 60.5782 11.494 55.5573 11.494 50.4867C11.494 45.416 12.4626 40.3951 14.3442 35.7115C16.2259 31.0279 18.9838 26.7735 22.4598 23.192C25.9272 19.5998 30.048 16.7508 34.5852 14.8087C39.1225 12.8665 43.9867 11.8696 48.8983 11.8751ZM65.9183 38.6057C65.3738 38.6586 64.8552 38.8707 64.4234 39.2173L43.4128 55.486L33.6781 45.4398C33.4129 45.1562 33.0956 44.9301 32.7449 44.7745C32.3941 44.6189 32.0169 44.537 31.6351 44.5336C31.2534 44.5301 30.8748 44.6053 30.5215 44.7545C30.1682 44.9038 29.8472 45.1242 29.5772 45.403C29.3073 45.6817 29.0938 46.0132 28.9492 46.378C28.8047 46.7429 28.7319 47.1338 28.7353 47.528C28.7386 47.9222 28.8179 48.3118 28.9686 48.674C29.1192 49.0362 29.3383 49.3637 29.6128 49.6376L41.1128 61.5126C41.6016 62.0175 42.2502 62.3237 42.9398 62.3749C43.6294 62.4262 44.3138 62.2191 44.8676 61.7917L67.8676 43.9792C68.355 43.6124 68.7183 43.0966 68.9061 42.5048C69.094 41.9131 69.0969 41.2753 68.9144 40.6817C68.7319 40.0882 68.3733 39.5689 67.8893 39.1974C67.4052 38.8259 66.8204 38.621 66.2174 38.6117C66.1197 38.6065 66.0218 38.6065 65.9241 38.6117L65.9183 38.6057Z" fill="#C1FD35"/>
</g>
<defs>
<clipPath id="clip0_1623_2865">
<rect width="92" height="95" fill="white"/>
</clipPath>
</defs>
</svg>
